<svg width="91" height="91" viewBox="0 0 91 91" fill="none" xmlns="http://www.w3.org/2000/svg">
<path d="M29.6818 19.7955L27.6204 21.0219L9.90909 30.6705L9.99387 45.4809V48.6075M29.6818 19.7955V10.8977M29.6818 19.7955V28.6932L45.5 37.5909M29.6818 10.8977L45.5 2L61.3182 10.8977M29.6818 10.8977L45.5 19.7955M61.3182 10.8977L45.5 19.7955M61.3182 10.8977V19.7955M45.5 37.5909L61.3182 28.6932V19.7955M45.5 37.5909V19.7955M61.3182 19.7955L81.0909 30.6705V48.4659M81.0909 48.4659L73.1818 44.5114L57.3636 53.4091M81.0909 48.4659L89 52.4205M57.3636 53.4091V70.2159L69.2273 76.1477M57.3636 53.4091L73.1818 60.3295M73.1818 78.125V60.3295M73.1818 78.125L89 71.2045V52.4205M73.1818 78.125L69.2273 76.1477M73.1818 60.3295L89 52.4205M69.2273 76.1477L46.4886 89L23.0127 76.3698M23.0127 76.3698L17.8182 79.1136M23.0127 76.3698L34.625 70.2159V52.4205M9.99387 48.6075L2 53.4091M9.99387 48.6075L18.097 43.8655L34.625 52.4205M2 53.4091V71.2045L17.8182 79.1136M2 53.4091L17.8182 61.3182M17.8182 79.1136V61.3182M17.8182 61.3182L34.625 52.4205" stroke="white" stroke-width="3"/>
</svg>
